<?xml version="1.0" encoding="utf-8"?>
<!-- Generator: Adobe Illustrator 16.0.0, SVG Export Plug-In . SVG Version: 6.00 Build 0)  -->
<!DOCTYPE svg PUBLIC "-//W3C//DTD SVG 1.1//EN" "http://www.w3.org/Graphics/SVG/1.1/DTD/svg11.dtd">
<svg version="1.1" xmlns="http://www.w3.org/2000/svg" xmlns:xlink="http://www.w3.org/1999/xlink" x="0px" y="0px" width="100px"
	 height="100px" viewBox="0 0 100 100" enable-background="new 0 0 100 100" xml:space="preserve">
<g id="arrow_down">
	<path d="M1.512,34.384l47.072,47.073c0.75,0.75,2.078,0.75,2.828,0l47.076-47.075c0.375-0.375,0.586-0.884,0.586-1.414
		s-0.211-1.039-0.586-1.414L85.501,18.566c-0.391-0.391-0.901-0.586-1.414-0.586c-0.512,0-1.022,0.195-1.414,0.586L49.999,51.241
		L17.324,18.567c-0.75-0.751-2.078-0.75-2.828,0L1.512,31.555C0.73,32.337,0.73,33.603,1.512,34.384z"/>
</g>
<g id="arrow_up">
	<path d="M98.488,65.616L51.416,18.543c-0.75-0.75-2.078-0.75-2.828,0L1.513,65.618c-0.375,0.375-0.587,0.884-0.587,1.414
		s0.212,1.039,0.587,1.414l12.986,12.987c0.392,0.391,0.902,0.586,1.414,0.586s1.023-0.195,1.414-0.586l32.674-32.675l32.675,32.674
		c0.75,0.751,2.078,0.75,2.828,0l12.984-12.987C99.27,67.663,99.27,66.397,98.488,65.616z"/>
</g>
<g id="arrow_left">
	<path d="M65.617,1.512L18.543,48.584c-0.75,0.75-0.75,2.078,0,2.828l47.076,47.075c0.375,0.375,0.883,0.587,1.414,0.587
		c0.529,0,1.038-0.212,1.413-0.587l12.987-12.986c0.391-0.392,0.586-0.902,0.586-1.414s-0.195-1.023-0.586-1.414L48.759,49.999
		l32.673-32.675c0.751-0.75,0.75-2.078,0-2.828L68.445,1.512C67.664,0.73,66.397,0.73,65.617,1.512z"/>
</g>
<g id="arrow_right">
	<path d="M34.384,98.488l47.073-47.072c0.75-0.75,0.75-2.078,0-2.828L34.382,1.512c-0.375-0.375-0.884-0.586-1.414-0.586
		c-0.53,0-1.039,0.211-1.414,0.586L18.567,14.499c-0.391,0.391-0.586,0.902-0.586,1.414c0,0.512,0.195,1.023,0.586,1.414
		l32.674,32.674L18.568,82.676c-0.751,0.75-0.75,2.078,0,2.828l12.987,12.984C32.337,99.27,33.603,99.27,34.384,98.488z"/>
</g>
</svg>
